<svg width="72" height="51" viewBox="0 0 72 51" fill="none" xmlns="http://www.w3.org/2000/svg">
<path d="M9.11912 0C4.10071 0 0 4.10045 0 9.11912V14.4008C0 15.3963 0.806587 16.1995 1.80214 16.1995C6.79351 16.1995 10.7994 20.2088 10.7994 25.2003C10.7994 30.1918 6.79351 34.2011 1.80214 34.2011C0.806595 34.2011 0 35.0043 0 35.9998V41.2815C0 46.2999 4.10045 50.4006 9.11912 50.4006H62.8809C67.8993 50.4006 72 46.3002 72 41.2815V35.9998C72 35.0043 71.1934 34.2011 70.1979 34.2011C65.2065 34.2011 61.2006 30.1918 61.2006 25.2003C61.2006 20.2088 65.2065 16.1995 70.1979 16.1995C71.1934 16.1995 72 15.3963 72 14.4008V9.11912C72 4.10071 67.8996 0 62.8809 0H9.11912ZM23.4013 7.2019C23.8771 7.2019 24.3361 7.39089 24.6736 7.72838C25.0112 8.06587 25.2001 8.52485 25.2001 9.00074V14.4005C25.2001 14.8764 25.0111 15.3353 24.6736 15.6729C24.3361 16.0104 23.8772 16.1993 23.4013 16.1993C22.4057 16.1993 21.5991 15.3961 21.5991 14.4006V9.00081C21.5991 8.00526 22.4057 7.2019 23.4013 7.2019ZM35.9996 16.1992C37.9671 16.1992 39.6006 17.8326 39.6006 19.8002C39.6006 21.7678 37.9672 23.4012 35.9996 23.4012C34.032 23.4012 32.3986 21.7678 32.3986 19.8002C32.3986 17.8326 34.032 16.1992 35.9996 16.1992ZM48.3179 16.2228C48.8883 16.1317 49.4654 16.3207 49.8704 16.7291C50.5757 17.431 50.5757 18.5683 49.8704 19.2737L35.4733 33.6707C34.768 34.3761 33.6307 34.3761 32.9287 33.6707C32.2234 32.9688 32.2234 31.8315 32.9287 31.1261L47.3258 16.7291C47.5958 16.4591 47.9434 16.2802 48.3179 16.2228ZM23.4013 20.7013C23.8771 20.7013 24.3361 20.8903 24.6736 21.2277C25.0112 21.5652 25.2001 22.0242 25.2001 22.5001V27.8999C25.2001 28.3757 25.0111 28.8347 24.6736 29.1722C24.3361 29.5098 23.8772 29.6987 23.4013 29.6987C22.4057 29.6987 21.5991 28.8955 21.5991 27.8999V22.5002C21.5991 21.5046 22.4057 20.7013 23.4013 20.7013ZM46.7991 26.9988C48.7666 26.9988 50.4001 28.6322 50.4001 30.5998C50.4001 32.5673 48.7667 34.2008 46.7991 34.2008C44.8315 34.2008 43.1981 32.5673 43.1981 30.5998C43.1981 28.6322 44.8315 26.9988 46.7991 26.9988ZM23.4013 34.2007C23.8771 34.2007 24.3361 34.3897 24.6736 34.7271C25.0112 35.0646 25.2001 35.5236 25.2001 35.9995V41.3993C25.2001 41.8751 25.0111 42.3341 24.6736 42.6716C24.3361 43.0092 23.8772 43.1981 23.4013 43.1981C22.4057 43.1981 21.5991 42.3949 21.5991 41.3993V35.9996C21.5991 35.004 22.4057 34.2007 23.4013 34.2007Z" fill="white"/>
</svg>
